<?xml version="1.0" encoding="UTF-8" standalone="no"?>
<svg
   xmlns:dc="http://purl.org/dc/elements/1.1/"
   xmlns:cc="http://creativecommons.org/ns#"
   xmlns:rdf="http://www.w3.org/1999/02/22-rdf-syntax-ns#"
   xmlns:svg="http://www.w3.org/2000/svg"
   xmlns="http://www.w3.org/2000/svg"
   xmlns:sodipodi="http://sodipodi.sourceforge.net/DTD/sodipodi-0.dtd"
   xmlns:inkscape="http://www.inkscape.org/namespaces/inkscape"
   viewBox="0 0 45.875 43.875137"
   version="1.1"
   width="45.875"
   height="43.875137"
   id="svg2"
   inkscape:version="0.91 r13725"
   sodipodi:docname="Comment.svg">
  <metadata
     id="metadata11">
    <rdf:RDF>
      <cc:Work
         rdf:about="">
        <dc:format>image/svg+xml</dc:format>
        <dc:type
           rdf:resource="http://purl.org/dc/dcmitype/StillImage" />
        <dc:title></dc:title>
      </cc:Work>
    </rdf:RDF>
  </metadata>
  <defs
     id="defs9" />
  <sodipodi:namedview
     pagecolor="#ffffff"
     bordercolor="#666666"
     borderopacity="1"
     objecttolerance="10"
     gridtolerance="10"
     guidetolerance="10"
     inkscape:pageopacity="0"
     inkscape:pageshadow="2"
     inkscape:window-width="748"
     inkscape:window-height="480"
     id="namedview7"
     showgrid="false"
     fit-margin-top="0"
     fit-margin-left="0"
     fit-margin-right="0"
     fit-margin-bottom="0"
     inkscape:zoom="4.72"
     inkscape:cx="22.9375"
     inkscape:cy="22.937638"
     inkscape:window-x="0"
     inkscape:window-y="30"
     inkscape:window-maximized="0"
     inkscape:current-layer="svg2" />
  <g
     id="surface1"
     transform="translate(-2.0625,-4.0625)">
    <path
       d="M 25,4.0625 C 12.414063,4.0625 2.0625,12.925781 2.0625,24 c 0,6.425781 3.5625,12.09375 8.9375,15.71875 -0.0078,0.214844 0,0.546875 -0.28125,1.59375 -0.347656,1.292969 -1.035156,3.125 -2.46875,5.15625 L 7.21875,47.90625 9,47.9375 C 15.175781,47.96484 18.753906,43.90625 19.3125,43.25 21.136719,43.65625 23.035156,43.9375 25,43.9375 37.582031,43.9375 47.9375,35.074219 47.9375,24 47.9375,12.925781 37.582031,4.0625 25,4.0625 Z m 0,1.875 c 11.714844,0 21.0625,8.152344 21.0625,18.0625 0,9.910156 -9.347656,18.0625 -21.0625,18.0625 -2.003906,0 -3.949219,-0.242187 -5.78125,-0.6875 l -0.5625,-0.125 -0.375,0.46875 c 0,0 -2.890625,3.257813 -7.5,4.03125 0.832031,-1.492187 1.464844,-2.878906 1.75,-3.9375 0.398438,-1.480469 0.40625,-2.5 0.40625,-2.5 l 0,-0.5 L 12.5,38.53125 C 7.273438,35.21875 3.9375,29.941406 3.9375,24 3.9375,14.089844 13.28125,5.9375 25,5.9375 Z"
       id="path5"
       inkscape:connector-curvature="0" />
  </g>
</svg>
