<?xml version="1.0" encoding="UTF-8" standalone="no"?>
<!-- Generator: Adobe Illustrator 18.1.1, SVG Export Plug-In . SVG Version: 6.00 Build 0)  -->

<svg
   xmlns:dc="http://purl.org/dc/elements/1.1/"
   xmlns:cc="http://creativecommons.org/ns#"
   xmlns:rdf="http://www.w3.org/1999/02/22-rdf-syntax-ns#"
   xmlns:svg="http://www.w3.org/2000/svg"
   xmlns="http://www.w3.org/2000/svg"
   xmlns:sodipodi="http://sodipodi.sourceforge.net/DTD/sodipodi-0.dtd"
   xmlns:inkscape="http://www.inkscape.org/namespaces/inkscape"
   version="1.1"
   id="Layer_1"
   x="0px"
   y="0px"
   viewBox="0 0 500 500"
   enable-background="new 0 0 500 500"
   xml:space="preserve"
   inkscape:version="0.91 r13725"
   sodipodi:docname="Link.svg"><metadata
     id="metadata9"><rdf:RDF><cc:Work
         rdf:about=""><dc:format>image/svg+xml</dc:format><dc:type
           rdf:resource="http://purl.org/dc/dcmitype/StillImage" /></cc:Work></rdf:RDF></metadata><defs
     id="defs7" /><sodipodi:namedview
     pagecolor="#ffffff"
     bordercolor="#666666"
     borderopacity="1"
     objecttolerance="10"
     gridtolerance="10"
     guidetolerance="10"
     inkscape:pageopacity="0"
     inkscape:pageshadow="2"
     inkscape:window-width="1920"
     inkscape:window-height="1017"
     id="namedview5"
     showgrid="false"
     inkscape:zoom="0.472"
     inkscape:cx="250"
     inkscape:cy="250"
     inkscape:window-x="2560"
     inkscape:window-y="450"
     inkscape:window-maximized="1"
     inkscape:current-layer="Layer_1" /><path
     d="M 479.56801,86.690018 413.60187,20.431991 C 400.46702,7.2971395 382.95388,0 363.98132,0 345.30064,0 327.49562,7.2971395 314.36077,20.431991 L 208.69819,126.09457 c -13.13485,13.13485 -20.43199,30.64799 -20.43199,49.62055 0,4.67017 0.58377,9.34034 1.45943,14.01051 -4.67017,-0.87566 -9.34034,-1.45943 -14.01051,-1.45943 -18.68068,0 -36.19381,7.29714 -49.62055,20.43199 L 20.431991,314.36077 C 7.2971395,327.49562 0,345.00876 0,363.98132 c 0,18.97256 7.2971395,36.19381 20.431991,49.62055 l 65.966141,65.96614 C 99.532983,492.70286 117.04612,500 136.01868,500 c 18.97256,0 36.4857,-7.29714 49.62055,-20.43199 L 291.30181,373.90543 c 17.22125,-17.22125 23.64273,-41.15587 18.97256,-63.33917 4.67017,0.87565 9.34034,1.45943 14.01051,1.45943 18.68068,0 36.19381,-7.29714 49.62055,-20.43199 L 479.56801,185.93112 C 492.70286,172.79626 500,155.28313 500,136.31057 500,117.338 492.99475,99.824869 479.56801,86.690018 Z M 258.31874,340.92236 152.65616,446.58494 c -8.75657,8.75657 -24.2265,8.75657 -32.98307,0 L 53.706947,380.6188 c -4.378284,-4.37829 -6.713368,-10.216 -6.713368,-16.63748 0,-6.42148 2.335084,-12.2592 6.713368,-16.63748 L 159.36953,241.68126 c 4.37828,-4.37828 10.21599,-6.71337 16.63748,-6.71337 6.42148,0 12.25919,2.33509 16.63747,6.71337 l 16.63748,16.63748 -57.79334,57.79334 c -9.04846,9.04846 -9.04846,23.93462 0,32.98307 4.67017,4.67017 10.50788,6.71337 16.63747,6.71337 6.1296,0 11.96731,-2.33508 16.63748,-6.71337 l 57.79335,-57.79334 16.63748,16.63748 c 8.17279,9.04845 8.17279,23.93462 -0.87566,32.98307 z m 188.2662,-188.2662 -105.66258,105.66258 c -8.75657,8.75657 -24.2265,8.75657 -32.98307,0 l -16.63748,-16.63748 57.79334,-57.79334 c 9.04846,-9.04846 9.04846,-23.93462 0,-32.98307 -9.04845,-9.04846 -23.93461,-9.04846 -32.98307,0 l -57.79334,57.79334 -16.63748,-16.63748 c -4.37828,-4.37828 -6.71337,-10.21599 -6.71337,-16.63748 0,-6.42148 2.33509,-12.25919 6.71337,-16.63747 L 347.34384,53.123176 c 4.37828,-4.378284 10.216,-6.713369 16.63748,-6.713369 6.1296,0 12.25919,2.335085 16.63748,6.713369 l 65.96614,65.966144 c 4.37828,4.37828 6.71337,10.21599 6.71337,16.63748 0.29188,6.71336 -2.33509,12.55108 -6.71337,16.92936 z"
     id="path3"
     inkscape:connector-curvature="0" /></svg>